<svg width="500" height="500" viewBox="0 0 500 500" fill="none" xmlns="http://www.w3.org/2000/svg">
<g clip-path="url(#clip0_2_17)">
<path d="M387 210.39C387 239.933 372.71 268.265 347.272 289.155C321.835 310.045 287.335 321.78 251.362 321.78C215.388 321.78 180.888 310.045 155.451 289.155C130.014 268.265 115.723 239.933 115.723 210.39L251.362 210.39H387Z" fill="#733817"/>
<ellipse cx="294.805" cy="237.722" rx="92.1955" ry="91.278" fill="#733817"/>
<ellipse cx="191.99" cy="250.099" rx="83.9896" ry="78.9013" fill="#733817"/>
<path d="M402 344.5C407.523 344.5 411.98 349.258 408.938 353.868C402.727 363.278 387.242 372.031 364.049 379C333.299 388.239 291.426 393.613 247.325 393.98C203.225 394.347 160.372 389.678 127.872 380.964C104.215 374.622 87.4008 366.501 79.0334 357.59C74.773 353.053 78.9869 347.222 85.21 347.119L242.5 344.5H402Z" fill="#535861"/>
<path d="M409 144.5C415.075 144.5 420.024 149.427 419.774 155.497C418.752 180.302 414.278 204.737 406.527 227.734C397.632 254.122 384.594 278.099 368.158 298.296C351.722 318.492 332.21 334.513 310.735 345.444C289.26 356.374 266.244 362 243 362C219.756 362 196.74 356.374 175.265 345.444C153.79 334.513 134.278 318.492 117.842 298.296C101.406 278.099 88.3684 254.122 79.4733 227.734C71.7216 204.737 67.2483 180.302 66.2264 155.497C65.9763 149.427 70.9249 144.5 77 144.5L89.3849 144.5C95.46 144.5 100.355 149.428 100.666 155.495C101.651 174.748 105.218 193.695 111.241 211.564C118.408 232.826 128.913 252.145 142.156 268.419C155.399 284.692 171.121 297.6 188.424 306.407C205.726 315.214 224.272 319.747 243 319.747C261.728 319.747 280.274 315.214 297.576 306.407C314.879 297.6 330.601 284.692 343.844 268.419C357.087 252.145 367.592 232.826 374.759 211.564C380.782 193.695 384.349 174.748 385.334 155.495C385.645 149.428 390.54 144.5 396.615 144.5H409Z" fill="#26292E"/>
<path d="M387 200C387 193.925 391.955 188.912 397.955 189.863C406.073 191.149 413.93 193.859 421.154 197.898C431.592 203.732 440.361 212.143 446.626 222.329C452.89 232.514 456.441 244.135 456.939 256.082C457.438 268.03 454.867 279.906 449.473 290.578C444.079 301.25 436.04 310.362 426.125 317.045C416.209 323.729 404.747 327.761 392.83 328.757C380.914 329.753 368.941 327.68 358.054 322.735C350.518 319.312 343.676 314.593 337.827 308.82C333.503 304.552 334.602 297.59 339.493 293.987L344.03 290.646C348.922 287.043 355.743 288.236 360.481 292.039C363.227 294.243 366.249 296.105 369.481 297.574C376.071 300.566 383.317 301.821 390.529 301.218C397.741 300.615 404.678 298.175 410.679 294.13C416.68 290.085 421.545 284.57 424.81 278.111C428.075 271.652 429.63 264.465 429.329 257.234C429.027 250.003 426.878 242.97 423.087 236.806C419.295 230.641 413.988 225.551 407.671 222.02C404.572 220.287 401.28 218.959 397.877 218.055C392.005 216.495 387 211.71 387 205.635V200Z" fill="#26292E"/>
</g>
<defs>
<clipPath id="clip0_2_17">
<rect width="500" height="500" fill="white"/>
</clipPath>
</defs>
</svg>
